# xmcd
#
# Track frame offsets: 
#        150
#        22625
#        50113
#        69375
#        84525
#        97288
#        116363
#        132088
#        152213
#        174013
#
# Disc length: 2572 seconds
#
# Revision: 2
# Processed by: cddbd v1.5.2PL0 Copyright (c) Steve Scherf et al.
# Submitted via: ExactAudioCopyFreeDBPlugin 1.0
#
DISCID=770a0a0a
DTITLE=Delta Cross Band - Tough Times
DYEAR=1990
DGENRE=Blues
TTITLE0=The Thrill Is Gone
TTITLE1=She Moves Me
TTITLE2=Ain't That Bad (You Can't Loose What You Ain't Never Had)
TTITLE3=It Hurts Me, Too
TTITLE4=As The Crow Flies
TTITLE5=Born Under A Bad Sign
TTITLE6=Dust My Broom
TTITLE7=Dekalb Blues
TTITLE8=Rambling On My Mind
TTITLE9=From Four Until Late
EXTD=
EXTT0=
EXTT1=
EXTT2=
EXTT3=
EXTT4=
EXTT5=
EXTT6=
EXTT7=
EXTT8=
EXTT9=
PLAYORDER=
